<svg id="visual" viewBox="0 0 960 80" width="960" height="80" xmlns="http://www.w3.org/2000/svg"
     xmlns:xlink="http://www.w3.org/1999/xlink" version="1.1">
    <rect x="0" y="0" width="960" height="100" fill="#1a1b1e"></rect>
    <path d="M0 76L22.8 74.8C45.7 73.7 91.3 71.3 137 71.3C182.7 71.3 228.3 73.7 274 72C319.7 70.3 365.3 64.7 411.2 65.2C457 65.7 503 72.3 548.8 73.2C594.7 74 640.3 69 686 68.5C731.7 68 777.3 72 823 73.3C868.7 74.7 914.3 73.3 937.2 72.7L960 72L960 0L937.2 0C914.3 0 868.7 0 823 0C777.3 0 731.7 0 686 0C640.3 0 594.7 0 548.8 0C503 0 457 0 411.2 0C365.3 0 319.7 0 274 0C228.3 0 182.7 0 137 0C91.3 0 45.7 0 22.8 0L0 0Z"
          fill="#7f69fa"></path>
    <path d="M0 61L22.8 60.5C45.7 60 91.3 59 137 59C182.7 59 228.3 60 274 58.7C319.7 57.3 365.3 53.7 411.2 50.2C457 46.7 503 43.3 548.8 45.3C594.7 47.3 640.3 54.7 686 58C731.7 61.3 777.3 60.7 823 59.5C868.7 58.3 914.3 56.7 937.2 55.8L960 55L960 0L937.2 0C914.3 0 868.7 0 823 0C777.3 0 731.7 0 686 0C640.3 0 594.7 0 548.8 0C503 0 457 0 411.2 0C365.3 0 319.7 0 274 0C228.3 0 182.7 0 137 0C91.3 0 45.7 0 22.8 0L0 0Z"
          fill="#7759ee"></path>
    <path d="M0 46L22.8 44.5C45.7 43 91.3 40 137 37.8C182.7 35.7 228.3 34.3 274 35.7C319.7 37 365.3 41 411.2 42C457 43 503 41 548.8 40.5C594.7 40 640.3 41 686 42.2C731.7 43.3 777.3 44.7 823 42.7C868.7 40.7 914.3 35.3 937.2 32.7L960 30L960 0L937.2 0C914.3 0 868.7 0 823 0C777.3 0 731.7 0 686 0C640.3 0 594.7 0 548.8 0C503 0 457 0 411.2 0C365.3 0 319.7 0 274 0C228.3 0 182.7 0 137 0C91.3 0 45.7 0 22.8 0L0 0Z"
          fill="#6f49e1"></path>
    <path d="M0 38L22.8 34.8C45.7 31.7 91.3 25.3 137 22.5C182.7 19.7 228.3 20.3 274 22C319.7 23.7 365.3 26.3 411.2 27C457 27.7 503 26.3 548.8 26.5C594.7 26.7 640.3 28.3 686 28.7C731.7 29 777.3 28 823 27.2C868.7 26.3 914.3 25.7 937.2 25.3L960 25L960 0L937.2 0C914.3 0 868.7 0 823 0C777.3 0 731.7 0 686 0C640.3 0 594.7 0 548.8 0C503 0 457 0 411.2 0C365.3 0 319.7 0 274 0C228.3 0 182.7 0 137 0C91.3 0 45.7 0 22.8 0L0 0Z"
          fill="#6738d4"></path>
    <path d="M0 8L22.8 8.3C45.7 8.7 91.3 9.3 137 11.2C182.7 13 228.3 16 274 17.2C319.7 18.3 365.3 17.7 411.2 17.5C457 17.3 503 17.7 548.8 18.3C594.7 19 640.3 20 686 19.2C731.7 18.3 777.3 15.7 823 15.7C868.7 15.7 914.3 18.3 937.2 19.7L960 21L960 0L937.2 0C914.3 0 868.7 0 823 0C777.3 0 731.7 0 686 0C640.3 0 594.7 0 548.8 0C503 0 457 0 411.2 0C365.3 0 319.7 0 274 0C228.3 0 182.7 0 137 0C91.3 0 45.7 0 22.8 0L0 0Z"
          fill="#5f24c7"></path>
</svg>
